<svg version="1.1" xmlns="http://www.w3.org/2000/svg" xmlns:xlink="http://www.w3.org/1999/xlink" width="800" height="800"><defs/><g transform="scale(2,2)"><g id="background-239b0fe0"><rect fill="white" stroke="none" x="0" y="0" width="400" height="400" class="dcg-svg-background"/></g><g id="background-images-239b0fe0"/><g id="graphpaper-239b0fe0"><g id="axis-239b0fe0"><g id="yaxis-239b0fe0"><title>Y axis</title><g><path fill="none" stroke="rgb(0,0,0)" class="dcg-svg-axis-line" paint-order="fill stroke markers" d=" M 183 0 L 183 400" stroke-opacity="0.9" stroke-miterlimit="10" stroke-width="1.5" stroke-dasharray=""/></g></g><g id="xaxis-239b0fe0"><title>X axis</title><g><path fill="none" stroke="rgb(0,0,0)" class="dcg-svg-axis-line" paint-order="fill stroke markers" d=" M 0 203 L 400 203" stroke-opacity="0.9" stroke-miterlimit="10" stroke-width="1.5" stroke-dasharray=""/></g></g><g><g><path fill="none" stroke="rgb(0,0,0)" class="dcg-svg-tickmark" paint-order="fill stroke markers" d="" stroke-opacity="0.9" stroke-miterlimit="2" stroke-width="1.5" stroke-dasharray=""/></g></g></g></g><g id="expressions-239b0fe0"><g id="sketch-239b0fe0"><title>Expression 1</title><path fill="#2d70b3" stroke="none" paint-order="stroke fill markers" d="" fill-opacity="0.4"/><path fill="#2d70b3" stroke="none" class="dcg-svg-region" paint-order="stroke fill markers" d=" M 183.37976658298516 175.830078125 L 237.02392578125 202.74658203125 L 183.19091796875 202.63671875 L 183.19091796875 175.830078125 L 183.37976658298516 175.830078125" fill-opacity="0.4"/><g><path fill="none" stroke="#2d70b3" class="dcg-svg-curve" paint-order="fill stroke markers" d=" M 183.37976658298516 175.830078125 L 183.37976658298516 175.830078125 L 236.99304783298518 202.63671875" stroke-linecap="round" stroke-linejoin="round" stroke-miterlimit="10" stroke-width="2.5" stroke-opacity="0.9" stroke-dasharray=""/></g><g><path fill="none" stroke="#2d70b3" class="dcg-svg-curve" paint-order="fill stroke markers" d=" M 183.30078125 175.79058545850742 L 183.30078125 175.79058545850742 L 183.37976658298516 175.830078125" stroke-linecap="round" stroke-linejoin="round" stroke-miterlimit="10" stroke-width="2.5" stroke-opacity="0.9" stroke-dasharray=""/></g></g><g id="sketch-239b0fe0"><title>Expression 3</title><path fill="#2d70b3" stroke="none" paint-order="stroke fill markers" d="" fill-opacity="0.4"/><path fill="#2d70b3" stroke="none" paint-order="stroke fill markers" d="" fill-opacity="0.4"/><path fill="#2d70b3" stroke="none" class="dcg-svg-region" paint-order="stroke fill markers" d=" M 183.17724092930467 229.8273430654193 L 183.17724092930467 202.77807918178954 L 237.27576869656423 202.77807918178954 L 237.27576869656423 229.8273430654193" fill-opacity="0.4"/><g><path fill="none" stroke="#2d70b3" class="dcg-svg-curve" paint-order="fill stroke markers" d=" M 183.17724092930467 229.8273430654193 L 183.17724092930467 229.8273430654193 L 183.17724092930467 202.77807918178954" stroke-linecap="round" stroke-linejoin="round" stroke-miterlimit="10" stroke-width="2.5" stroke-opacity="0.9" stroke-dasharray=""/></g><g><path fill="none" stroke="#2d70b3" class="dcg-svg-curve" paint-order="fill stroke markers" d=" M 237.27576869656423 229.8273430654193 L 237.27576869656423 229.8273430654193 L 237.27576869656423 202.77807918178954" stroke-linecap="round" stroke-linejoin="round" stroke-miterlimit="10" stroke-width="2.5" stroke-opacity="0.9" stroke-dasharray=""/></g></g><g id="sketch-239b0fe0"><title>Expression 4</title><path fill="#2d70b3" stroke="none" paint-order="stroke fill markers" d="" fill-opacity="0.4"/><path fill="#2d70b3" stroke="none" class="dcg-svg-region" paint-order="stroke fill markers" d=" M 129.43344116210938 202.78091430664062 L 130.126953125 202.8564453125 L 130.731201171875 202.801513671875 L 131.4453125 202.8564453125 L 131.610107421875 202.801513671875 L 132.32421875 202.8564453125 L 132.489013671875 202.801513671875 L 133.203125 202.8564453125 L 133.367919921875 202.801513671875 L 134.08203125 202.8564453125 L 134.246826171875 202.801513671875 L 134.9609375 202.8564453125 L 135.125732421875 202.801513671875 L 135.83984375000003 202.8564453125 L 136.004638671875 202.801513671875 L 136.71875 202.8564453125 L 136.883544921875 202.801513671875 L 137.59765625000003 202.8564453125 L 137.762451171875 202.801513671875 L 138.4765625 202.8564453125 L 138.64135742187503 202.801513671875 L 139.35546875000003 202.8564453125 L 139.520263671875 202.801513671875 L 140.234375 202.8564453125 L 140.39916992187503 202.801513671875 L 141.11328125000003 202.8564453125 L 141.278076171875 202.801513671875 L 141.9921875 202.8564453125 L 142.15698242187503 202.801513671875 L 142.87109375000003 202.8564453125 L 143.035888671875 202.801513671875 L 143.75 202.8564453125 L 143.914794921875 202.801513671875 L 144.62890625 202.8564453125 L 144.793701171875 202.801513671875 L 145.5078125 202.8564453125 L 145.672607421875 202.801513671875 L 146.38671875 202.8564453125 L 146.551513671875 202.801513671875 L 147.265625 202.8564453125 L 147.430419921875 202.801513671875 L 148.14453125 202.8564453125 L 148.309326171875 202.801513671875 L 149.0234375 202.8564453125 L 149.188232421875 202.801513671875 L 149.90234375 202.8564453125 L 150.067138671875 202.801513671875 L 150.78125 202.8564453125 L 150.946044921875 202.801513671875 L 151.66015625 202.8564453125 L 151.824951171875 202.801513671875 L 152.5390625 202.8564453125 L 152.703857421875 202.801513671875 L 153.41796875 202.8564453125 L 153.582763671875 202.801513671875 L 154.296875 202.8564453125 L 154.461669921875 202.801513671875 L 155.17578125 202.8564453125 L 155.340576171875 202.801513671875 L 156.0546875 202.8564453125 L 156.219482421875 202.801513671875 L 156.93359375 202.8564453125 L 157.098388671875 202.801513671875 L 157.8125 202.8564453125 L 157.977294921875 202.801513671875 L 158.69140625 202.8564453125 L 158.856201171875 202.801513671875 L 159.5703125 202.8564453125 L 159.735107421875 202.801513671875 L 160.44921875 202.8564453125 L 160.614013671875 202.801513671875 L 161.328125 202.8564453125 L 161.492919921875 202.801513671875 L 162.20703125 202.8564453125 L 162.371826171875 202.801513671875 L 163.0859375 202.8564453125 L 163.250732421875 202.801513671875 L 163.96484375 202.8564453125 L 164.129638671875 202.801513671875 L 164.84375 202.8564453125 L 165.008544921875 202.801513671875 L 165.72265625 202.8564453125 L 165.887451171875 202.801513671875 L 166.6015625 202.8564453125 L 166.766357421875 202.801513671875 L 167.48046875 202.8564453125 L 167.645263671875 202.801513671875 L 168.359375 202.8564453125 L 168.524169921875 202.801513671875 L 169.23828125 202.8564453125 L 169.403076171875 202.801513671875 L 170.1171875 202.8564453125 L 170.281982421875 202.801513671875 L 170.99609375 202.8564453125 L 171.160888671875 202.801513671875 L 171.875 202.8564453125 L 172.039794921875 202.801513671875 L 172.75390625 202.8564453125 L 172.918701171875 202.801513671875 L 173.6328125 202.8564453125 L 173.797607421875 202.801513671875 L 174.51171875 202.8564453125 L 174.676513671875 202.801513671875 L 175.390625 202.8564453125 L 175.555419921875 202.801513671875 L 176.26953125 202.8564453125 L 176.434326171875 202.801513671875 L 177.1484375 202.8564453125 L 177.313232421875 202.801513671875 L 178.02734375 202.8564453125 L 178.192138671875 202.801513671875 L 178.90625 202.8564453125 L 179.071044921875 202.801513671875 L 179.78515625 202.8564453125 L 179.949951171875 202.801513671875 L 180.6640625 202.8564453125 L 180.828857421875 202.801513671875 L 181.54296875 202.8564453125 L 181.707763671875 202.801513671875 L 182.421875 202.8564453125 L 182.586669921875 202.801513671875 L 183.135986328125 202.801513671875 L 183.135986328125 256.8765806700421 L 179.40089164980301 256.74464164980304 L 178.48364783952306 256.6726021604769 L 174.96726129186018 256.25 L 171.14702072461958 255.52202072461958 L 164.84375 253.67533696840707 L 161.6524427546189 252.4100572453811 L 157.8125 250.56174296619255 L 155.42991503380026 249.21875 L 150.78125 246.1041421568099 L 144.91490253542383 241.02259746457617 L 143.75 239.82049252480047 L 139.83783339701193 235.15625000000003 L 138.53706458757966 233.33793541242034 L 136.71875 230.4955173965639 L 135.3841066704683 228.125 L 133.53448456441222 224.27801543558775 L 132.27354073473515 221.09375 L 130.16842889988214 213.58157110011788 L 129.63943944388907 210.546875 L 129.21069126295805 206.55444126295805 L 129.07874571730207 202.8356643919383 L 129.43344116210938 202.78091430664062" fill-opacity="0.4"/><g><path fill="none" stroke="#2d70b3" class="dcg-svg-curve" paint-order="fill stroke markers" d=" M 183.135986328125 256.8765806700421 L 183.135986328125 256.8765806700421 L 179.40089164980301 256.74464164980304 L 178.48364783952306 256.6726021604769 L 174.96726129186018 256.25 L 171.14702072461958 255.52202072461958 L 164.84375 253.67533696840707 L 161.6524427546189 252.4100572453811 L 157.8125 250.56174296619255 L 155.42991503380026 249.21875 L 150.78125 246.1041421568099 L 144.91490253542383 241.02259746457617 L 143.75 239.82049252480047 L 139.83783339701193 235.15625000000003 L 138.53706458757966 233.33793541242034 L 136.71875 230.4955173965639 L 135.3841066704683 228.125 L 133.53448456441222 224.27801543558775 L 132.27354073473515 221.09375 L 130.16842889988214 213.58157110011788 L 129.63943944388907 210.546875 L 129.21069126295805 206.55444126295805 L 129.07874571730207 202.8356643919383" stroke-linecap="round" stroke-linejoin="round" stroke-miterlimit="10" stroke-width="2.5" stroke-opacity="0.9" stroke-dasharray=""/></g></g></g><g id="labels-239b0fe0"/></g></svg>